<?xml version="1.0" standalone="no"?>
<!DOCTYPE svg PUBLIC "-//W3C//DTD SVG 20010904//EN"
 "http://www.w3.org/TR/2001/REC-SVG-20010904/DTD/svg10.dtd">
<svg version="1.0" xmlns="http://www.w3.org/2000/svg"
 width="369.000000pt" height="360.000000pt" viewBox="0 0 369.000000 360.000000"
 preserveAspectRatio="xMidYMid meet">

<g transform="translate(0.000000,360.000000) scale(0.100000,-0.100000)"
fill="#000000" stroke="none">
<path d="M1740 2864 c-165 -60 -261 -222 -261 -442 0 -101 17 -174 59 -257 16
-32 25 -64 23 -88 -1 -25 5 -48 19 -66 11 -16 20 -38 20 -50 0 -35 -31 -42
-143 -35 -207 13 -311 -47 -368 -214 -10 -30 -19 -58 -19 -62 0 -4 18 -19 40
-34 l40 -26 23 52 c50 111 118 156 224 145 70 -7 81 -18 59 -52 -54 -83 -183
-165 -259 -165 -76 0 -120 35 -231 186 -33 44 -75 92 -95 107 -118 92 -271 26
-271 -118 0 -38 6 -52 34 -82 29 -32 41 -38 75 -38 51 0 84 30 84 76 0 48 -67
93 -88 59 -3 -6 5 -10 19 -10 47 0 56 -66 11 -84 -24 -9 -63 14 -76 45 -22 54
28 119 90 119 35 0 87 -57 150 -166 34 -57 78 -123 97 -144 47 -51 128 -90
201 -97 108 -10 280 55 380 142 28 25 53 45 55 45 1 0 3 -42 3 -92 0 -83 3
-99 29 -151 16 -32 63 -96 103 -144 41 -47 81 -99 90 -116 18 -36 20 -115 4
-145 -9 -18 -8 -29 8 -60 34 -67 43 -68 78 -9 72 119 61 218 -40 382 -90 148
-127 223 -127 262 0 84 65 124 109 67 28 -36 27 -84 -5 -154 l-26 -58 43 -73
43 -72 27 32 c14 18 39 58 55 89 26 52 29 66 28 154 l-1 97 55 -49 c88 -79
257 -149 357 -150 52 0 132 25 177 56 49 34 114 119 164 215 39 74 102 139
135 139 34 0 76 -28 89 -60 22 -54 -22 -120 -70 -105 -58 18 -41 94 19 86 7
-2 10 2 6 8 -21 35 -88 -10 -88 -58 0 -46 33 -76 84 -76 34 0 46 6 75 38 29
31 34 44 34 85 0 63 -30 109 -90 140 -54 28 -103 24 -165 -13 -37 -22 -57 -45
-147 -170 -67 -93 -129 -135 -200 -135 -70 0 -202 86 -255 166 -22 34 -9 44
64 51 104 9 189 -49 223 -153 13 -40 27 -42 66 -12 16 12 31 23 33 24 8 6 -34
113 -61 156 -62 98 -158 135 -325 124 -112 -7 -143 0 -143 35 0 12 9 34 20 50
14 18 20 42 19 66 -1 24 8 57 24 88 80 157 80 361 1 516 -33 66 -105 138 -168
169 -65 31 -181 38 -246 14z"/>
<path d="M1575 1539 c-22 -17 -56 -39 -76 -49 -43 -23 -54 -52 -74 -217 -8
-65 -22 -143 -31 -173 -33 -111 -130 -165 -189 -105 -29 28 -31 55 -10 115 8
23 15 60 15 82 0 80 -98 130 -151 77 -27 -27 -22 -76 10 -98 l25 -16 -17 26
c-19 29 -14 55 13 64 53 17 71 -32 41 -111 -41 -109 -20 -193 58 -234 51 -26
132 -26 186 -1 86 40 132 115 165 272 25 120 38 167 58 204 11 20 16 57 17
112 0 46 0 83 0 83 0 0 -18 -14 -40 -31z"/>
<path d="M2075 1485 c1 -53 6 -90 17 -110 20 -37 33 -84 58 -204 24 -112 46
-164 91 -216 44 -50 100 -75 169 -75 142 0 205 107 149 254 -24 61 -20 101 10
111 44 14 71 -23 46 -62 -16 -24 -16 -24 4 -14 34 19 44 47 27 80 -42 80 -166
38 -166 -57 0 -22 7 -59 15 -82 21 -60 19 -87 -10 -115 -46 -46 -125 -25 -163
44 -28 50 -41 103 -57 237 -22 175 -25 181 -114 239 l-76 51 0 -81z"/>
<path d="M733 1525 c-48 -34 -33 -111 32 -161 54 -41 142 -46 211 -11 27 14
61 38 76 54 l27 28 -35 25 -36 24 -16 -21 c-52 -66 -165 -85 -221 -37 -34 28
-39 55 -15 75 21 17 50 -1 47 -30 -2 -13 1 -20 7 -16 18 11 11 64 -9 75 -27
14 -43 13 -68 -5z"/>
<path d="M2888 1529 c-19 -11 -25 -64 -8 -74 6 -4 9 3 7 16 -3 29 26 47 47 30
24 -20 19 -47 -15 -75 -55 -46 -163 -31 -215 31 l-22 25 -36 -24 -36 -25 33
-30 c57 -56 109 -76 181 -71 96 6 157 58 159 136 2 54 -50 88 -95 61z"/>
<path d="M1723 1173 c-9 -21 -19 -69 -21 -108 -5 -93 22 -166 89 -239 58 -64
118 -96 178 -96 60 0 96 25 142 97 42 67 67 87 96 76 13 -4 15 -3 8 5 -5 6
-23 14 -38 17 -25 7 -35 0 -96 -64 -54 -56 -74 -71 -97 -71 -51 0 -100 44
-141 125 -30 59 -36 100 -23 156 12 49 12 50 -25 94 -20 25 -41 45 -46 45 -6
0 -17 -17 -26 -37z"/>
<path d="M1484 914 c-18 -15 -18 -15 0 -10 30 10 62 -18 97 -84 53 -101 117
-129 203 -92 25 12 46 25 46 31 0 5 -14 19 -30 31 -24 17 -34 19 -45 10 -18
-15 -65 -16 -93 -1 -11 6 -35 31 -52 56 -50 73 -87 90 -126 59z"/>
</g>
</svg>
